<svg width="128" height="128" viewBox="0 0 128 128" fill="none" xmlns="http://www.w3.org/2000/svg">
<g clip-path="url(#clip0_1_31)">
<path d="M100 0H28C12.536 0 0 12.536 0 28V100C0 115.464 12.536 128 28 128H100C115.464 128 128 115.464 128 100V28C128 12.536 115.464 0 100 0Z" fill="#0B0D12"/>
<path d="M97.0909 12H30.9091C20.4659 12 12 20.4659 12 30.9091V97.0909C12 107.534 20.4659 116 30.9091 116H97.0909C107.534 116 116 107.534 116 97.0909V30.9091C116 20.4659 107.534 12 97.0909 12Z" fill="#171B24" stroke="#232838"/>
<path d="M75.7273 21H28.4545C23.2329 21 19 25.2329 19 30.4545C19 35.6761 23.2329 39.9091 28.4545 39.9091H75.7273C80.9489 39.9091 85.1818 35.6761 85.1818 30.4545C85.1818 25.2329 80.9489 21 75.7273 21Z" fill="url(#paint0_linear_1_31)"/>
<path d="M61.5455 52H28.4545C23.2329 52 19 56.2329 19 61.4545C19 66.6761 23.2329 70.9091 28.4545 70.9091H61.5455C66.7671 70.9091 71 66.6761 71 61.4545C71 56.2329 66.7671 52 61.5455 52Z" fill="#1B2130" stroke="#8695FF"/>
<path d="M97.0909 101.909C102.312 101.909 106.545 97.6761 106.545 92.4545C106.545 87.2329 102.312 83 97.0909 83C91.8693 83 87.6364 87.2329 87.6364 92.4545C87.6364 97.6761 91.8693 101.909 97.0909 101.909Z" fill="#1B2130" stroke="#8198FF"/>
<path d="M64.75 47H74.5909V77.2273C74.5909 80.6212 73.7803 83.5909 72.1591 86.1364C70.553 88.6818 68.303 90.6667 65.4091 92.0909C62.5152 93.5 59.1439 94.2045 55.2955 94.2045C51.4318 94.2045 48.053 93.5 45.1591 92.0909C42.2652 90.6667 40.0152 88.6818 38.4091 86.1364C36.803 83.5909 36 80.6212 36 77.2273V47H45.8409V76.3864C45.8409 78.1591 46.2273 79.7348 47 81.1136C47.7879 82.4924 48.8939 83.5758 50.3182 84.3636C51.7424 85.1515 53.4015 85.5455 55.2955 85.5455C57.2045 85.5455 58.8636 85.1515 60.2727 84.3636C61.697 83.5758 62.7955 82.4924 63.5682 81.1136C64.3561 79.7348 64.75 78.1591 64.75 76.3864V47Z" fill="white"/>
<path d="M92.5284 47V93.5455H82.6875V47H92.5284Z" fill="white"/>
</g>
<defs>
<linearGradient id="paint0_linear_1_31" x1="19" y1="21" x2="28.9897" y2="55.964" gradientUnits="userSpaceOnUse">
<stop stop-color="#6AA3FF"/>
<stop offset="1" stop-color="#9B8CFF"/>
</linearGradient>
<clipPath id="clip0_1_31">
<rect width="128" height="128" fill="white"/>
</clipPath>
</defs>
</svg>
