<svg xmlns="http://www.w3.org/2000/svg" width="1200" height="630" viewBox="0 0 1200 630">
  <defs>
    <linearGradient id="g" x1="0" y1="0" x2="1" y2="1">
      <stop offset="0%" stop-color="#0b0d12"/>
      <stop offset="100%" stop-color="#0c111b"/>
    </linearGradient>
    <linearGradient id="acc" x1="0" y1="0" x2="1" y2="1">
      <stop offset="0%" stop-color="#6aa3ff"/>
      <stop offset="100%" stop-color="#9b8cff"/>
    </linearGradient>
    <filter id="soft" x="-20%" y="-20%" width="140%" height="140%">
      <feGaussianBlur in="SourceGraphic" stdDeviation="24"/>
    </filter>
  </defs>
  <rect width="1200" height="630" fill="url(#g)"/>

  <g opacity="0.35" filter="url(#soft)">
    <circle cx="980" cy="-40" r="220" fill="url(#acc)"/>
    <circle cx="-60" cy="560" r="260" fill="url(#acc)"/>
  </g>

  <g fill="#e6e9ef" font-family="'Inter', ui-sans-serif, -apple-system, Segoe UI, Roboto, Arial" letter-spacing=".4px">
    <text x="80" y="250" font-size="48" fill="#aeb6c7">AI-Assisted Dev Reference</text>
    <text x="80" y="330" font-size="84" font-weight="700">UI Component Glossary</text>
  </g>

  <g transform="translate(80, 390)">
    <rect x="0" y="0" rx="14" ry="14" width="320" height="64" fill="#171b24" stroke="#232838"/>
    <rect x="18" y="17" rx="10" ry="10" width="122" height="30" fill="url(#acc)"/>
    <text x="22" y="38" font-size="20" font-family="'Inter', ui-sans-serif, -apple-system, Segoe UI, Roboto, Arial" fill="#0b0d12" font-weight="700">Primary</text>
    <rect x="160" y="17" rx="10" ry="10" width="120" height="30" fill="#1b2130" stroke="#232838"/>
    <text x="184" y="38" font-size="20" font-family="'Inter', ui-sans-serif, -apple-system, Segoe UI, Roboto, Arial" fill="#e6e9ef">Default</text>
  </g>

  <g transform="translate(430, 402)">
    <rect x="0" y="0" width="340" height="40" rx="10" ry="10" fill="#121827" stroke="#232838"/>
    <rect x="2" y="2" width="210" height="36" rx="8" ry="8" fill="#1a2030"/>
    <rect x="2" y="2" width="120" height="36" rx="8" ry="8" fill="#1f2636"/>
    <text x="12" y="27" font-size="18" font-family="'Inter', ui-sans-serif, -apple-system, Segoe UI, Roboto, Arial" fill="#aeb6c7">Overview</text>
    <text x="128" y="27" font-size="18" font-family="'Inter', ui-sans-serif, -apple-system, Segoe UI, Roboto, Arial" fill="#7a8599">Details</text>
  </g>

  <g transform="translate(80, 480)" font-family="'Inter', ui-sans-serif, -apple-system, Segoe UI, Roboto, Arial" font-size="20" fill="#aeb6c7">
    <text>Canonical names • Synonyms • Live behavior</text>
  </g>
</svg>

